{
	"asset":{
		"generator":"Khronos glTF Blender I/O v4.0.44",
		"version":"2.0"
	},
	"scene":0,
	"scenes":[
		{
			"name":"Scene",
			"nodes":[
				0,
				1,
				2,
				3
			]
		}
	],
	"nodes":[
		{
			"mesh":0,
			"name":"desk",
			"scale":[
				0.800000011920929,
				1,
				0.3499999940395355
			],
			"translation":[
				0,
				0.640555739402771,
				0
			]
		},
		{
			"mesh":1,
			"name":"Circle",
			"scale":[
				0.1297624558210373,
				1.2976245880126953,
				0.1297624558210373
			],
			"translation":[
				0,
				0.6643819808959961,
				-0.20258796215057373
			]
		},
		{
			"mesh":2,
			"name":"Cube",
			"scale":[
				0.10629007965326309,
				0.10629007965326309,
				0.10629007965326309
			],
			"translation":[
				0.6248624324798584,
				1.0378813743591309,
				-0.20258866250514984
			]
		},
		{
			"mesh":3,
			"name":"Cube.001",
			"scale":[
				0.05072538182139397,
				0.1424662470817566,
				0.05072538182139397
			],
			"translation":[
				0.6243585348129272,
				0.8015596270561218,
				-0.2109958678483963
			]
		}
	],
	"materials":[
		{
			"doubleSided":true,
			"name":"main desk",
			"pbrMetallicRoughness":{
				"baseColorFactor":[
					0.13526856899261475,
					0.07251936197280884,
					0.05253806710243225,
					1
				],
				"metallicFactor":0,
				"roughnessFactor":0.3937007784843445
			}
		},
		{
			"doubleSided":true,
			"name":"foot",
			"pbrMetallicRoughness":{
				"baseColorFactor":[
					0.03680317476391792,
					0.040363214910030365,
					0.04644213989377022,
					1
				],
				"metallicFactor":0.9212598204612732,
				"roughnessFactor":0.31889766454696655
			}
		},
		{
			"doubleSided":true,
			"name":"display case",
			"pbrMetallicRoughness":{
				"baseColorFactor":[
					0.029557349160313606,
					0.029027357697486877,
					0.04641295224428177,
					1
				],
				"metallicFactor":0,
				"roughnessFactor":0.5
			}
		},
		{
			"doubleSided":true,
			"name":"Material.002",
			"pbrMetallicRoughness":{
				"baseColorFactor":[
					0.8002749681472778,
					0.7487560510635376,
					0.515627920627594,
					1
				],
				"metallicFactor":0,
				"roughnessFactor":0.5
			}
		}
	],
	"meshes":[
		{
			"name":"Plane.001",
			"primitives":[
				{
					"attributes":{
						"POSITION":0,
						"NORMAL":1,
						"TEXCOORD_0":2
					},
					"indices":3,
					"material":0
				},
				{
					"attributes":{
						"POSITION":4,
						"NORMAL":5,
						"TEXCOORD_0":6
					},
					"indices":7,
					"material":1
				}
			]
		},
		{
			"name":"Circle",
			"primitives":[
				{
					"attributes":{
						"POSITION":8,
						"NORMAL":9,
						"TEXCOORD_0":10
					},
					"indices":11,
					"material":2
				}
			]
		},
		{
			"name":"Cube.001",
			"primitives":[
				{
					"attributes":{
						"POSITION":12,
						"NORMAL":13,
						"TEXCOORD_0":14
					},
					"indices":15,
					"material":3
				}
			]
		},
		{
			"name":"Cube.002",
			"primitives":[
				{
					"attributes":{
						"POSITION":16,
						"NORMAL":17,
						"TEXCOORD_0":18
					},
					"indices":19,
					"material":2
				}
			]
		}
	],
	"accessors":[
		{
			"bufferView":0,
			"componentType":5126,
			"count":24,
			"max":[
				1,
				0.019999999552965164,
				1
			],
			"min":[
				-1,
				0,
				-1
			],
			"type":"VEC3"
		},
		{
			"bufferView":1,
			"componentType":5126,
			"count":24,
			"type":"VEC3"
		},
		{
			"bufferView":2,
			"componentType":5126,
			"count":24,
			"type":"VEC2"
		},
		{
			"bufferView":3,
			"componentType":5123,
			"count":36,
			"type":"SCALAR"
		},
		{
			"bufferView":4,
			"componentType":5126,
			"count":184,
			"max":[
				1.008367657661438,
				-0.010931015014648438,
				0.5452491641044617
			],
			"min":[
				-1.0093272924423218,
				-0.640555739402771,
				-0.5452491641044617
			],
			"type":"VEC3"
		},
		{
			"bufferView":5,
			"componentType":5126,
			"count":184,
			"type":"VEC3"
		},
		{
			"bufferView":6,
			"componentType":5126,
			"count":184,
			"type":"VEC2"
		},
		{
			"bufferView":7,
			"componentType":5123,
			"count":312,
			"type":"SCALAR"
		},
		{
			"bufferView":8,
			"componentType":5126,
			"count":736,
			"max":[
				2.1374318599700928,
				0.2700486183166504,
				1
			],
			"min":[
				-2.1374318599700928,
				0,
				-1
			],
			"type":"VEC3"
		},
		{
			"bufferView":9,
			"componentType":5126,
			"count":736,
			"type":"VEC3"
		},
		{
			"bufferView":10,
			"componentType":5126,
			"count":736,
			"type":"VEC2"
		},
		{
			"bufferView":11,
			"componentType":5123,
			"count":1350,
			"type":"SCALAR"
		},
		{
			"bufferView":12,
			"componentType":5126,
			"count":20,
			"max":[
				1.8930085897445679,
				1.826444387435913,
				1.8930084705352783
			],
			"min":[
				-1.8930085897445679,
				-0.7550942897796631,
				-1.8930087089538574
			],
			"type":"VEC3"
		},
		{
			"bufferView":13,
			"componentType":5126,
			"count":20,
			"type":"VEC3"
		},
		{
			"bufferView":14,
			"componentType":5126,
			"count":20,
			"type":"VEC2"
		},
		{
			"bufferView":15,
			"componentType":5123,
			"count":30,
			"type":"SCALAR"
		},
		{
			"bufferView":16,
			"componentType":5126,
			"count":24,
			"max":[
				1,
				1,
				1
			],
			"min":[
				-1,
				-1,
				-1
			],
			"type":"VEC3"
		},
		{
			"bufferView":17,
			"componentType":5126,
			"count":24,
			"type":"VEC3"
		},
		{
			"bufferView":18,
			"componentType":5126,
			"count":24,
			"type":"VEC2"
		},
		{
			"bufferView":19,
			"componentType":5123,
			"count":36,
			"type":"SCALAR"
		}
	],
	"bufferViews":[
		{
			"buffer":0,
			"byteLength":288,
			"byteOffset":0,
			"target":34962
		},
		{
			"buffer":0,
			"byteLength":288,
			"byteOffset":288,
			"target":34962
		},
		{
			"buffer":0,
			"byteLength":192,
			"byteOffset":576,
			"target":34962
		},
		{
			"buffer":0,
			"byteLength":72,
			"byteOffset":768,
			"target":34963
		},
		{
			"buffer":0,
			"byteLength":2208,
			"byteOffset":840,
			"target":34962
		},
		{
			"buffer":0,
			"byteLength":2208,
			"byteOffset":3048,
			"target":34962
		},
		{
			"buffer":0,
			"byteLength":1472,
			"byteOffset":5256,
			"target":34962
		},
		{
			"buffer":0,
			"byteLength":624,
			"byteOffset":6728,
			"target":34963
		},
		{
			"buffer":0,
			"byteLength":8832,
			"byteOffset":7352,
			"target":34962
		},
		{
			"buffer":0,
			"byteLength":8832,
			"byteOffset":16184,
			"target":34962
		},
		{
			"buffer":0,
			"byteLength":5888,
			"byteOffset":25016,
			"target":34962
		},
		{
			"buffer":0,
			"byteLength":2700,
			"byteOffset":30904,
			"target":34963
		},
		{
			"buffer":0,
			"byteLength":240,
			"byteOffset":33604,
			"target":34962
		},
		{
			"buffer":0,
			"byteLength":240,
			"byteOffset":33844,
			"target":34962
		},
		{
			"buffer":0,
			"byteLength":160,
			"byteOffset":34084,
			"target":34962
		},
		{
			"buffer":0,
			"byteLength":60,
			"byteOffset":34244,
			"target":34963
		},
		{
			"buffer":0,
			"byteLength":288,
			"byteOffset":34304,
			"target":34962
		},
		{
			"buffer":0,
			"byteLength":288,
			"byteOffset":34592,
			"target":34962
		},
		{
			"buffer":0,
			"byteLength":192,
			"byteOffset":34880,
			"target":34962
		},
		{
			"buffer":0,
			"byteLength":72,
			"byteOffset":35072,
			"target":34963
		}
	],
	"buffers":[
		{
			"byteLength":35144,
			"uri":"scene.bin"
		}
	]
}
