{
  "accessors": [
    {
      "bufferView": 2,
      "componentType": 5126,
      "count": 1568,
      "max": [
        1.9344630241394043,
        1.4479490518569946,
        0.3991680145263672
      ],
      "min": [
        -1.0270140171051025,
        -1.5104910135269165,
        -0.35920700430870056
      ],
      "type": "VEC3"
    },
    {
      "bufferView": 2,
      "byteOffset": 18816,
      "componentType": 5126,
      "count": 1568,
      "max": [
        0.993986964225769,
        1.0,
        1.0
      ],
      "min": [
        -1.0,
        -1.0,
        -1.0
      ],
      "type": "VEC3"
    },
    {
      "bufferView": 1,
      "componentType": 5126,
      "count": 1568,
      "max": [
        0.953478991985321,
        0.9996140003204346
      ],
      "min": [
        0.0003859999997075647,
        0.0003859999997075647
      ],
      "type": "VEC2"
    },
    {
      "bufferView": 0,
      "componentType": 5125,
      "count": 7167,
      "type": "SCALAR"
    },
    {
      "bufferView": 2,
      "byteOffset": 37632,
      "componentType": 5126,
      "count": 308,
      "max": [
        2.689457893371582,
        2.689457893371582,
        0.563726007938385
      ],
      "min": [
        -2.689457893371582,
        -2.689457893371582,
        -0.4599289894104004
      ],
      "type": "VEC3"
    },
    {
      "bufferView": 2,
      "byteOffset": 41328,
      "componentType": 5126,
      "count": 308,
      "max": [
        0.9897027611732483,
        0.8374907970428467,
        1.0
      ],
      "min": [
        -0.6418226957321167,
        -0.7135466933250427,
        0.022199571132659912
      ],
      "type": "VEC3"
    },
    {
      "bufferView": 1,
      "byteOffset": 12544,
      "componentType": 5126,
      "count": 308,
      "max": [
        0.9996359944343567,
        0.974789023399353
      ],
      "min": [
        0.0003640000068116933,
        0.0003640000068116933
      ],
      "type": "VEC2"
    },
    {
      "bufferView": 0,
      "byteOffset": 28668,
      "componentType": 5125,
      "count": 876,
      "type": "SCALAR"
    },
    {
      "bufferView": 2,
      "byteOffset": 45024,
      "componentType": 5126,
      "count": 2397,
      "max": [
        1.947371006011963,
        1.9467370510101318,
        0.47609299421310425
      ],
      "min": [
        -1.3497270345687866,
        -1.5227899551391602,
        -0.39630401134490967
      ],
      "type": "VEC3"
    },
    {
      "bufferView": 2,
      "byteOffset": 73788,
      "componentType": 5126,
      "count": 2397,
      "max": [
        0.9998322129249573,
        1.0,
        0.999948263168335
      ],
      "min": [
        -0.9995741248130798,
        -1.0,
        -0.9998329281806946
      ],
      "type": "VEC3"
    },
    {
      "bufferView": 1,
      "byteOffset": 15008,
      "componentType": 5126,
      "count": 2397,
      "max": [
        0.9713450074195862,
        0.9996299743652344
      ],
      "min": [
        0.0003699999942909926,
        0.0003699999942909926
      ],
      "type": "VEC2"
    },
    {
      "bufferView": 0,
      "byteOffset": 32172,
      "componentType": 5125,
      "count": 11295,
      "type": "SCALAR"
    },
    {
      "bufferView": 2,
      "byteOffset": 102552,
      "componentType": 5126,
      "count": 1403,
      "max": [
        1.1168169975280762,
        1.9328919649124146,
        1.6755410432815552
      ],
      "min": [
        -1.3354870080947876,
        -1.923145055770874,
        -0.42216700315475464
      ],
      "type": "VEC3"
    },
    {
      "bufferView": 2,
      "byteOffset": 119388,
      "componentType": 5126,
      "count": 1403,
      "max": [
        0.9995616674423218,
        0.9990904927253723,
        0.9997807145118713
      ],
      "min": [
        -0.9997958540916443,
        -0.9960078001022339,
        -0.9976314306259155
      ],
      "type": "VEC3"
    },
    {
      "bufferView": 1,
      "byteOffset": 34184,
      "componentType": 5126,
      "count": 1403,
      "max": [
        0.9713450074195862,
        0.9996299743652344
      ],
      "min": [
        0.0003699999942909926,
        0.0003699999942909926
      ],
      "type": "VEC2"
    },
    {
      "bufferView": 0,
      "byteOffset": 77352,
      "componentType": 5125,
      "count": 6258,
      "type": "SCALAR"
    }
  ],
  "asset": {
    "extras": {
      "author": "Coffeek (https://sketchfab.com/coffe0wolf)",
      "license": "CC-BY-4.0 (http://creativecommons.org/licenses/by/4.0/)",
      "source": "https://sketchfab.com/3d-models/camera-0a23d12d3cc746cba20608ec5f55b654",
      "title": "Camera"
    },
    "generator": "Sketchfab-12.65.0",
    "version": "2.0"
  },
  "bufferViews": [
    {
      "buffer": 0,
      "byteLength": 102384,
      "name": "floatBufferViews",
      "target": 34963
    },
    {
      "buffer": 0,
      "byteLength": 45408,
      "byteOffset": 102384,
      "byteStride": 8,
      "name": "floatBufferViews",
      "target": 34962
    },
    {
      "buffer": 0,
      "byteLength": 136224,
      "byteOffset": 147792,
      "byteStride": 12,
      "name": "floatBufferViews",
      "target": 34962
    }
  ],
  "buffers": [
    {
      "byteLength": 284016,
      "uri": "scene.bin"
    }
  ],
  "extensionsUsed": [
    "KHR_materials_unlit"
  ],
  "images": [
    {
      "uri": "textures/camera_baseColor.png"
    },
    {
      "uri": "textures/grass_baseColor.png"
    },
    {
      "uri": "textures/shrooms_leaves_baseColor.png"
    }
  ],
  "materials": [
    {
      "doubleSided": true,
      "extensions": {
        "KHR_materials_unlit": {}
      },
      "name": "camera",
      "pbrMetallicRoughness": {
        "baseColorTexture": {
          "index": 0
        },
        "metallicFactor": 0.0
      }
    },
    {
      "alphaMode": "BLEND",
      "doubleSided": true,
      "extensions": {
        "KHR_materials_unlit": {}
      },
      "name": "grass",
      "pbrMetallicRoughness": {
        "baseColorTexture": {
          "index": 1
        },
        "metallicFactor": 0.0
      }
    },
    {
      "extensions": {
        "KHR_materials_unlit": {}
      },
      "name": "outline",
      "pbrMetallicRoughness": {
        "baseColorFactor": [
          0.001527499722989138,
          0.01101123050028984,
          0.007922936415384085,
          1.0
        ],
        "metallicFactor": 0.0
      }
    },
    {
      "doubleSided": true,
      "extensions": {
        "KHR_materials_unlit": {}
      },
      "name": "shrooms_leaves",
      "pbrMetallicRoughness": {
        "baseColorTexture": {
          "index": 2
        },
        "metallicFactor": 0.0
      }
    }
  ],
  "meshes": [
    {
      "name": "Object_0",
      "primitives": [
        {
          "attributes": {
            "NORMAL": 1,
            "POSITION": 0,
            "TEXCOORD_0": 2
          },
          "indices": 3,
          "material": 0,
          "mode": 4
        }
      ]
    },
    {
      "name": "Object_1",
      "primitives": [
        {
          "attributes": {
            "NORMAL": 5,
            "POSITION": 4,
            "TEXCOORD_0": 6
          },
          "indices": 7,
          "material": 1,
          "mode": 4
        }
      ]
    },
    {
      "name": "Object_2",
      "primitives": [
        {
          "attributes": {
            "NORMAL": 9,
            "POSITION": 8,
            "TEXCOORD_0": 10
          },
          "indices": 11,
          "material": 2,
          "mode": 4
        }
      ]
    },
    {
      "name": "Object_3",
      "primitives": [
        {
          "attributes": {
            "NORMAL": 13,
            "POSITION": 12,
            "TEXCOORD_0": 14
          },
          "indices": 15,
          "material": 3,
          "mode": 4
        }
      ]
    }
  ],
  "nodes": [
    {
      "children": [
        1
      ],
      "matrix": [
        1.0,
        0.0,
        0.0,
        0.0,
        0.0,
        2.220446049250313e-16,
        -1.0,
        0.0,
        0.0,
        1.0,
        2.220446049250313e-16,
        0.0,
        0.0,
        0.0,
        0.0,
        1.0
      ],
      "name": "Sketchfab_model"
    },
    {
      "children": [
        2,
        3,
        4,
        5
      ],
      "name": "camera3.obj.cleaner.materialmerger.gles"
    },
    {
      "mesh": 0,
      "name": "Object_2"
    },
    {
      "mesh": 1,
      "name": "Object_3"
    },
    {
      "mesh": 2,
      "name": "Object_4"
    },
    {
      "mesh": 3,
      "name": "Object_5"
    }
  ],
  "samplers": [
    {
      "magFilter": 9729,
      "minFilter": 9987,
      "wrapS": 10497,
      "wrapT": 10497
    }
  ],
  "scene": 0,
  "scenes": [
    {
      "name": "Sketchfab_Scene",
      "nodes": [
        0
      ]
    }
  ],
  "textures": [
    {
      "sampler": 0,
      "source": 0
    },
    {
      "sampler": 0,
      "source": 1
    },
    {
      "sampler": 0,
      "source": 2
    }
  ]
}
